# xmcd
#
# Track frame offsets: 
#        150
#        12987
#        29195
#        50495
#        71900
#        90425
#        112947
#        130992
#        150700
#        171415
#        182300
#        200655
#        217125
#        234902
#        254075
#        272292
#
# Disc length: 3893 seconds
#
# Revision: 15
# Processed by: cddbd v1.5.2PL0 Copyright (c) Steve Scherf et al.
# Submitted via: ExactAudioCopyFreeDBPlugin 1.0
#
DISCID=e70f3310
DTITLE=Nas - I Am...
DYEAR=1999
DGENRE=Hip-Hop
TTITLE0=Album Intro
TTITLE1=N.Y. State Of Mind Pt. II
TTITLE2=Hate Me Now (ft. Puff Daddy)
TTITLE3=Small World
TTITLE4=Favor For A Favor (ft. Scarface)
TTITLE5=We Will Survive
TTITLE6=Ghetto Prisoners
TTITLE7=You Won't See Me Tonight (ft. Aaliyah)
TTITLE8=I Want To Talk To You
TTITLE9=Dr. Knockboot
TTITLE10=Life Is What You Make It (ft. DMX)
TTITLE11=Big Things
TTITLE12=Nas Is Like
TTITLE13=K-I-SS-I-N-G
TTITLE14=Money Is My Bitch
TTITLE15=Undying Love
EXTD=YEAR: 1999
EXTT0=
EXTT1=
EXTT2=
EXTT3=
EXTT4=
EXTT5=
EXTT6=
EXTT7=
EXTT8=
EXTT9=
EXTT10=
EXTT11=
EXTT12=
EXTT13=
EXTT14=
EXTT15=
PLAYORDER=
